<svg width="817" height="173" viewBox="0 0 817 173" fill="none" xmlns="http://www.w3.org/2000/svg">
<path d="M5.344 24.576C6.688 44.976 11.68 57 20.32 60.648L25.432 59.064C25.432 58.728 25.72 57.288 26.296 54.744C26.872 52.2 28.192 48.792 30.256 44.52L31.408 42.144L26.584 36.6C24.088 41.448 22.36 46.968 21.4 53.16C15.88 51.336 12.328 41.544 10.744 23.784C10.648 23.16 10.6 21.744 10.6 19.536C10.6 17.328 10.816 14.184 11.248 10.104L4.48 9.096C4.72 11.352 4.912 14.112 5.056 17.376L5.344 24.576ZM57.616 46.536L63.52 42.504C63.136 36.84 62.152 32.064 60.568 28.176C57.832 21.456 53.8 15.864 48.472 11.4L44.44 13.776C49.864 19.2 53.392 24.384 55.024 29.328C56.656 34.272 57.52 40.008 57.616 46.536ZM96.28 55.248C91.96 55.248 89.776 53.568 89.728 50.208C89.728 46.224 92.56 44.232 98.224 44.232C100.624 44.28 103.528 44.76 106.936 45.672C106.984 52.056 103.528 55.248 96.568 55.248H96.28ZM106.792 40.92C103.864 39.912 100.744 39.408 97.432 39.408C88.696 39.408 84.328 43.32 84.328 51.144C84.328 57.48 88.984 60.648 98.296 60.648C101.368 60.648 104.536 59.544 107.8 57.336C110.728 55.176 112.264 51.792 112.408 47.184C116.68 48.528 120.568 52.08 124.072 57.84L128.968 53.376C124.264 48.048 118.528 44.208 111.76 41.856C111.472 39.504 111.328 37.056 111.328 34.512V30.696L128.68 29.544L128.968 23.352C124.504 24.552 118.624 25.248 111.328 25.44V24C111.328 23.568 111.304 20.808 111.256 15.72C120.232 15.672 126.832 15.288 131.056 14.568V8.88C126.688 9.984 120.088 10.656 111.256 10.896C111.208 9.648 111.184 8.208 111.184 6.576C111.184 4.896 111.256 3.624 111.4 2.76L105.28 1.752C105.568 4.44 105.712 6.624 105.712 8.304V11.04C96.592 11.04 90.496 10.968 87.424 10.824C84.4 10.68 81.784 10.32 79.576 9.744L80.224 15.576C82.096 15.816 90.688 15.936 106 15.936C106 17.136 106 18.576 106 20.256C106 21.984 106.024 23.832 106.072 25.8L95.344 25.944H95.2C93.184 25.896 91.408 25.152 89.872 23.712L85.336 26.592C86.728 29.616 90.232 31.128 95.848 31.128H106.216C106.216 31.32 106.216 31.92 106.216 32.928C106.216 33.984 106.408 36.648 106.792 40.92ZM149.92 49.416C155.488 54.696 159.88 59.712 163.096 64.464L169.144 60.144C167.272 56.784 162.52 52.128 154.888 46.176L149.92 49.416ZM279.016 28.68C280.024 28.68 280.912 28.8 281.68 29.04V22.92C280.72 23.112 279.112 23.208 276.856 23.208H267.136V4.056C267.136 2.952 267.256 1.824 267.496 0.671996H261.376C261.616 1.68 261.736 2.76 261.736 3.912V23.208H250.504C248.536 23.208 247.432 23.088 247.192 22.848V29.04C248.152 28.8 249.76 28.68 252.016 28.68H261.736V56.112H247.12L243.952 55.824V61.944C244.912 61.704 245.944 61.584 247.048 61.584H280.384C282.112 61.584 283.144 61.704 283.48 61.944V55.824C282.616 56.016 281.68 56.112 280.672 56.112H267.136V28.68H279.016ZM247.408 40.2C246.592 39.816 245.656 39.192 244.6 38.328L236.536 31.704C239.08 28.92 241.648 25.344 244.24 20.976C245.152 19.488 245.968 17.928 246.688 16.296L242.944 11.976H235.312V4.56C235.312 2.544 235.408 1.2 235.6 0.527997H229.48C229.72 1.296 229.84 2.136 229.84 3.048V11.976H223.216C221.968 11.976 220.864 11.856 219.904 11.616V17.736C221.248 17.496 222.64 17.376 224.08 17.376H240.136C233.848 28.368 225.856 36.624 216.16 42.144L220.048 48.12L229.84 38.976V61.296C229.84 62.496 229.72 63.6 229.48 64.608H235.6L235.312 61.08V37.896L244.24 47.256L247.408 40.2ZM342.88 65.976L349.36 63.456L345.544 57.624C343.192 54.312 340.696 51.168 338.056 48.192L333.304 43.152L327.976 46.104L330.784 48.624C331.648 49.392 333.064 50.856 335.032 53.016C329.56 54.216 321.976 55.08 312.28 55.608C315.304 51.576 317.776 46.968 319.696 41.784H347.416C348.616 41.784 349.696 41.904 350.656 42.144V35.808C349.696 36.048 348.616 36.168 347.416 36.168H296.512C295.264 36.168 294.208 36.048 293.344 35.808V42.144C294.304 41.904 295.36 41.784 296.512 41.784H313.504C311.104 47.256 308.128 51.96 304.576 55.896C304.48 56.04 302.896 56.112 299.824 56.112C296.8 56.112 294.52 56.016 292.984 55.824L295.288 62.88C295.672 62.64 296.728 62.496 298.456 62.448C300.184 62.448 303.616 62.304 308.752 62.016C318.208 61.152 328.288 59.76 338.992 57.84C341.584 61.584 342.88 64.296 342.88 65.976ZM335.536 27.816C336.496 27.816 337.384 27.936 338.2 28.176V21.768C337.72 22.008 336.616 22.128 334.888 22.128H309.112C307.384 22.128 306.28 22.008 305.8 21.768V28.176H305.944C306.904 27.936 307.96 27.816 309.112 27.816H335.536ZM355.84 23.064C344.224 18.264 334.12 10.896 325.528 0.959996H318.544C311.2 10.176 301.072 17.736 288.16 23.64L291.832 29.472C305.176 21.984 315.112 14.28 321.64 6.36H322.36C330.04 14.856 340.024 22.536 352.312 29.4L355.84 23.064ZM404.8 19.752C408.112 24.12 410.224 29.496 411.136 35.88L416.248 34.08C415.096 27.984 412.792 22.728 409.336 18.312L404.8 19.752ZM418.408 16.872L413.8 18.096C417.208 22.368 419.344 27.768 420.208 34.296L425.248 32.424C424 26.424 421.72 21.24 418.408 16.872ZM411.28 53.808C409.216 53.952 407.104 54.024 404.944 54.024C402.784 54.024 401.032 53.832 399.688 53.448C389.944 50.952 385.072 46.704 385.072 40.704C385.12 34.8 389.008 28.848 396.736 22.848C401.872 18.864 407.2 15.96 412.72 14.136L417.688 13.272L415.744 8.16C415.696 8.256 412.528 8.664 406.24 9.384C399.952 10.104 390.496 10.632 377.872 10.968C375.136 11.064 372.664 11.112 370.456 11.112C368.248 11.112 366.304 11.064 364.624 10.968L365.704 16.872L384.856 15.792C394.84 15.312 400.528 14.952 401.92 14.712C387.04 21.96 379.6 30.384 379.6 39.984C379.6 49.584 385.408 55.992 397.024 59.208C400.864 60.216 404.896 60.72 409.12 60.72L411.28 53.808ZM56.104 110.272L50.632 108.256C47.896 123.52 40.048 137.392 27.088 149.872V126.76C27.088 125.464 27.184 124.36 27.376 123.448H21.256C21.496 124.504 21.616 125.608 21.616 126.76V155.2C14.416 161.68 8.992 165.28 5.344 166L10.312 171.112L21.76 162.328C22.144 167.512 24.664 170.104 29.32 170.104H44.656C50.08 170.104 53.344 166.816 54.448 160.24C54.736 158.656 54.904 157.432 54.952 156.568C55 155.704 55.216 154.792 55.6 153.832L49.48 148.792V158.656C49.144 162.688 47.536 164.704 44.656 164.704H33.136C30.016 164.704 28.24 164.512 27.808 164.128C27.328 163.744 27.088 161.512 27.088 157.432C40.384 144.472 49.288 131.032 53.8 117.112C55.288 112.6 56.056 110.32 56.104 110.272ZM8.512 131.584C7.936 142.048 5.392 150.04 0.88 155.56L6.136 159.592C10.024 153.784 12.736 144.88 14.272 132.88L8.512 131.584ZM61.288 158.872L67.12 156.424C65.008 145.96 61.432 137.68 56.392 131.584L51.352 133.384C56.584 139.96 59.896 148.456 61.288 158.872ZM42.352 121.288C37.36 115 31.072 110.176 23.488 106.816L18.736 110.056C27.376 113.752 33.712 118.864 37.744 125.392L42.352 121.288ZM96.784 153.76C98.896 151.84 100.456 150.232 101.464 148.936H115.864C115 151.816 112.696 154.624 108.952 157.36L103.984 155.56C101.824 154.84 99.424 154.24 96.784 153.76ZM91.744 157.576L93.328 157.792C95.584 158.08 98.92 159.016 103.336 160.6C98.296 163.192 91.984 164.488 84.4 164.488C81.808 164.488 79.36 164.296 77.056 163.912L81.448 170.896C92.536 170.416 102.04 167.848 109.96 163.192L116.08 165.712C122.32 168.832 126.184 171.136 127.672 172.624L132.64 167.152L114.856 159.52C117.976 156.784 120.16 153.256 121.408 148.936H135.088C135.808 148.936 136.672 149.032 137.68 149.224V143.104C136.864 143.344 135.832 143.464 134.584 143.464H104.92C105.688 141.88 106.312 140.152 106.792 138.28H124.216C124.168 139.192 124.048 140.128 123.856 141.088H130.048C129.808 139.84 129.688 138.52 129.688 137.128V119.488H115.648V113.872H132.424C133.576 113.872 134.584 113.968 135.448 114.16V108.04C134.44 108.28 133.384 108.4 132.28 108.4H80.08C78.448 108.4 77.272 108.28 76.552 108.04V114.16C77.512 113.968 78.736 113.872 80.224 113.872H96.352V119.488H82.312V137.128C82.312 138.664 82.192 139.984 81.952 141.088H88.144C87.952 140.896 87.832 139.96 87.784 138.28H101.32C101.032 139.432 100.144 141.16 98.656 143.464H77.632C75.712 143.464 74.608 143.32 74.32 143.032V149.224C75.376 149.032 76.528 148.936 77.776 148.936H93.904C92.56 150.184 90.736 151.6 88.432 153.184C86.176 154.768 84.088 155.728 82.168 156.064H82.096L87.496 160.384C87.928 159.952 89.344 159.016 91.744 157.576ZM110.104 113.872V119.488H101.896V113.872H110.104ZM115.648 132.808V124.96H124.216V132.808H115.648ZM110.104 132.808H101.896V124.96H110.104V132.808ZM96.352 132.808H87.784V124.96H96.352V132.808ZM198.52 128.992L195.424 122.8C190.672 125.248 186.496 127.168 182.896 128.56C179.344 129.904 175.888 131.32 172.528 132.808C169.024 118.696 167.272 110.872 167.272 109.336L160.576 110.2L161.296 112.36C163.504 118.984 165.52 126.448 167.344 134.752C158.608 140.752 154.24 146.44 154.24 151.816C154.24 161.416 161.656 166.216 176.488 166.216C177.496 166.216 184.24 165.784 196.72 164.92L198.16 158.296C191.728 159.688 184.672 160.384 176.992 160.384C169.312 160.384 164.512 159.016 162.592 156.28C161.44 155.176 160.864 153.472 160.864 151.168V150.952C160.864 143.32 173.416 136 198.52 128.992ZM247.192 106.816C248.632 111.856 250.072 116.368 251.512 120.352C244.84 120.976 239.416 121.288 235.24 121.288C231.064 121.288 227.848 121.096 225.592 120.712L227.536 126.904L240.424 126.544C244.84 126.304 249.184 125.92 253.456 125.392C256.576 133.264 259.384 138.544 261.88 141.232C257.08 138.784 251.416 137.56 244.888 137.56C233.128 137.608 227.248 142.552 227.248 152.392C227.248 158.776 231.352 163.048 239.56 165.208C242.968 166.12 249.424 166.576 258.928 166.576C259.84 166.576 260.488 166.48 260.872 166.288L263.608 160.672L254.032 160.888H252.088C239.128 160.84 232.672 157.672 232.72 151.384V151.096C233.296 145.624 237.52 142.864 245.392 142.816H245.608C253.432 142.816 260.728 144.688 267.496 148.432L269.728 143.752C265.12 137.752 261.52 131.392 258.928 124.672C264.448 123.904 269.608 122.896 274.408 121.648L274.264 115.888C269.8 117.52 264.112 118.768 257.2 119.632C254.944 113.296 253.744 108.952 253.6 106.6L247.192 106.816ZM292.84 122.728L294.424 129.424C295.336 129.472 296.152 129.496 296.872 129.496C299.656 129.448 302.512 128.848 305.44 127.696V136.984C302.176 143.032 297.328 148.48 290.896 153.328L295.432 158.296C299.656 154.408 302.968 150.328 305.368 146.056L305.296 157.936C305.248 162.256 304.96 165.28 304.432 167.008H311.2L311.056 166.288C310.864 165.328 310.768 162.568 310.768 158.008V140.08C319.552 128.848 326.296 123.232 331 123.232C332.728 123.328 333.928 123.76 334.6 124.528C335.512 125.68 335.968 127.624 335.968 130.36C335.968 133.096 335.44 137.008 334.384 142.096C333.28 147.184 332.728 151.168 332.728 154.048C332.728 160.864 335.632 164.272 341.44 164.272C344.512 164.224 347.92 162.832 351.664 160.096C351.136 158.656 350.536 156.544 349.864 153.76C347.32 157.024 344.44 158.656 341.224 158.656C339.208 158.608 338.2 156.952 338.2 153.688C338.2 151.576 338.848 146.944 340.144 139.792C341.392 132.64 342.016 128.608 342.016 127.696C342.016 120.784 338.488 117.328 331.432 117.328H331.36C325.888 117.328 319.024 122.344 310.768 132.376L310.84 128.2L314.872 123.52L312.64 120.784L310.768 121.648V116.104C310.768 113.08 310.96 110.104 311.344 107.176L304.432 106.168C305.104 110.872 305.44 113.848 305.44 115.096V123.088C303.808 123.808 301.816 124.168 299.464 124.168C297.064 124.168 294.856 123.688 292.84 122.728ZM412.864 159.808C410.8 159.952 408.688 160.024 406.528 160.024C404.368 160.024 402.616 159.832 401.272 159.448C391.528 156.952 386.656 152.704 386.656 146.704C386.704 140.8 390.592 134.848 398.32 128.848C403.456 124.864 408.784 121.96 414.304 120.136L419.272 119.272L417.328 114.16C417.28 114.256 414.112 114.664 407.824 115.384C401.536 116.104 392.08 116.632 379.456 116.968C376.72 117.064 374.248 117.112 372.04 117.112C369.832 117.112 367.888 117.064 366.208 116.968L367.288 122.872L386.44 121.792C396.424 121.312 402.112 120.952 403.504 120.712C388.624 127.96 381.184 136.384 381.184 145.984C381.184 155.584 386.992 161.992 398.608 165.208C402.448 166.216 406.48 166.72 410.704 166.72L412.864 159.808ZM437.344 130.576C438.688 150.976 443.68 163 452.32 166.648L457.432 165.064C457.432 164.728 457.72 163.288 458.296 160.744C458.872 158.2 460.192 154.792 462.256 150.52L463.408 148.144L458.584 142.6C456.088 147.448 454.36 152.968 453.4 159.16C447.88 157.336 444.328 147.544 442.744 129.784C442.648 129.16 442.6 127.744 442.6 125.536C442.6 123.328 442.816 120.184 443.248 116.104L436.48 115.096C436.72 117.352 436.912 120.112 437.056 123.376L437.344 130.576ZM489.616 152.536L495.52 148.504C495.136 142.84 494.152 138.064 492.568 134.176C489.832 127.456 485.8 121.864 480.472 117.4L476.44 119.776C481.864 125.2 485.392 130.384 487.024 135.328C488.656 140.272 489.52 146.008 489.616 152.536ZM555.424 147.64C555.424 153.16 552.688 157.144 547.216 159.592C546.64 155.416 544.768 152.32 541.6 150.304C539.392 148.864 536.944 148.144 534.256 148.144C525.088 148.144 520.504 151.36 520.504 157.792C520.6 164.128 525.712 167.296 535.84 167.296C538.432 167.248 541.12 166.912 543.904 166.288C550.24 164.848 555.112 161.968 558.52 157.648C560.776 154.48 561.904 151.264 561.904 148C561.904 144.784 560.728 141.784 558.376 139C554.776 135.016 548.56 133.024 539.728 133.024C537.52 133.024 534.592 133.96 530.944 135.832L553.624 116.608L548.656 111.784C545.104 112.696 539.968 113.152 533.248 113.152C526.528 113.152 521.392 112.816 517.84 112.144L518.416 118.48L526.696 118.408C533.848 118.072 539.848 117.664 544.696 117.184C537.784 124.72 529.48 131.68 519.784 138.064C514.744 141.424 511.288 143.392 509.416 143.968L515.032 149.368C516.904 147.544 519.736 145.312 523.528 142.672C528.328 139.264 533.104 137.56 537.856 137.56C549.568 137.56 555.424 140.92 555.424 147.64ZM534.544 153.184C538.72 153.184 541.168 154.816 541.888 158.08C541.888 158.32 542.008 159.328 542.248 161.104C539.704 161.872 537.448 162.256 535.48 162.256C529.384 162.256 526.336 160.648 526.336 157.432C526.384 154.6 529.12 153.184 534.544 153.184ZM628.216 122.008V115.6C623.944 116.368 619.72 116.752 615.544 116.752C604.36 116.752 595.984 115.936 590.416 114.304L591.136 120.568L603.376 121.504C606.448 121.84 610.984 122.008 616.984 122.008H628.216ZM630.088 161.608C632.44 160.936 633.904 160.456 634.48 160.168L631.312 154.048C630.064 154.96 628.168 155.848 625.624 156.712C619.768 158.2 613.648 158.944 607.264 158.944H606.976C595.936 158.944 590.416 155.896 590.416 149.8C590.416 148.36 590.896 146.824 591.856 145.192C592.816 143.56 594.28 142.024 596.248 140.584L593.008 136.12C590.464 137.944 588.472 140.056 587.032 142.456C585.544 144.904 584.8 147.448 584.8 150.088C584.8 153.88 586.312 157 589.336 159.448C593.368 162.856 599.632 164.56 608.128 164.56C616.624 164.56 623.944 163.576 630.088 161.608ZM702.52 128.992L699.424 122.8C694.672 125.248 690.496 127.168 686.896 128.56C683.344 129.904 679.888 131.32 676.528 132.808C673.024 118.696 671.272 110.872 671.272 109.336L664.576 110.2L665.296 112.36C667.504 118.984 669.52 126.448 671.344 134.752C662.608 140.752 658.24 146.44 658.24 151.816C658.24 161.416 665.656 166.216 680.488 166.216C681.496 166.216 688.24 165.784 700.72 164.92L702.16 158.296C695.728 159.688 688.672 160.384 680.992 160.384C673.312 160.384 668.512 159.016 666.592 156.28C665.44 155.176 664.864 153.472 664.864 151.168V150.952C664.864 143.32 677.416 136 702.52 128.992ZM755.08 138.424C742.888 144.28 736.792 149.656 736.792 154.552C736.792 161.56 740.728 165.712 748.6 167.008C751.288 167.44 754.72 167.656 758.896 167.656C763.024 167.656 768.04 167.392 773.944 166.864L774.304 159.88C767.68 161.224 762.616 161.896 759.112 161.896C755.608 161.896 752.272 161.704 749.104 161.32C745.168 160.84 743.2 158.872 743.2 155.416C743.2 152.584 746.416 149.344 752.848 145.696C754.144 145.072 755.392 144.496 756.592 143.968C756.736 145.072 756.808 146.464 756.808 148.144C756.808 149.776 756.568 152.008 756.088 154.84L762.496 153.76C762.352 148.384 762.064 144.4 761.632 141.808C769.936 138.256 775.84 136.36 779.344 136.12L776.032 130.144C771.664 131.488 766.408 133.48 760.264 136.12C759.976 135.448 759.688 134.824 759.4 134.248C757.048 130.312 753.568 128.344 748.96 128.344C747.712 128.344 746.536 128.536 745.432 128.92C746.728 126.52 747.88 124.072 748.888 121.576C758.296 121.048 765.16 120.4 769.48 119.632L769.408 113.44C766.528 114.736 761.32 115.624 753.784 116.104C752.824 116.2 751.864 116.296 750.904 116.392C752.104 112.84 753.088 109.144 753.856 105.304L747.736 103.936C746.872 108.448 745.72 112.696 744.28 116.68C743.512 116.68 742.792 116.68 742.12 116.68C736.264 116.68 732.52 116.344 730.888 115.672L731.392 122.224C731.968 122.176 735.568 122.056 742.192 121.864C738.688 129.592 733.984 136.168 728.08 141.592L733.408 145.48C736.336 142.36 738.976 139.096 741.328 135.688C744.16 133.96 746.776 133.096 749.176 133.096C751.528 133.096 753.496 134.872 755.08 138.424ZM812.032 161.032C812.032 162.808 811.432 164.32 810.232 165.568C809.032 166.768 807.544 167.368 805.768 167.368C803.992 167.368 802.504 166.768 801.304 165.568C800.104 164.32 799.504 162.808 799.504 161.032C799.504 159.256 800.128 157.744 801.376 156.496C802.576 155.296 804.064 154.696 805.84 154.696C807.568 154.696 809.032 155.296 810.232 156.496C811.432 157.744 812.032 159.256 812.032 161.032ZM798.208 153.4C796.096 155.512 795.04 158.08 795.04 161.104C795.04 164.08 796.096 166.624 798.208 168.736C800.272 170.8 802.792 171.832 805.768 171.832C808.744 171.832 811.264 170.8 813.328 168.736C815.44 166.624 816.496 164.08 816.496 161.104C816.496 158.08 815.44 155.512 813.328 153.4C811.264 151.288 808.744 150.232 805.768 150.232C802.792 150.232 800.272 151.288 798.208 153.4Z" fill="black"/>
</svg>
